<?xml version="1.0" encoding="UTF-8"?>
<svg id="Layer_2" data-name="Layer 2" xmlns="http://www.w3.org/2000/svg" xmlns:xlink="http://www.w3.org/1999/xlink" viewBox="0 0 1000 997.73">
  <defs>
    <style>
      .cls-1 {
        filter: url(#outer-glow-1);
      }

      .cls-2 {
        fill: #f9f9f9;
      }

      .cls-3 {
        fill: #00ffc2;
      }

      .cls-4 {
        fill: #101010;
      }
    </style>
    <filter id="outer-glow-1" x="173.22" y="136.87" width="654" height="726" filterUnits="userSpaceOnUse">
      <feOffset dx="0" dy="0"/>
      <feGaussianBlur result="blur" stdDeviation="12"/>
      <feFlood flood-color="#00ffc2" flood-opacity=".5"/>
      <feComposite in2="blur" operator="in"/>
      <feComposite in="SourceGraphic"/>
    </filter>
  </defs>
  <g id="Layer_1-2" data-name="Layer 1">
    <text/>
    <text/>
    <g>
      <path class="cls-4" d="M500,994.23c-67.03,0-132.05-13.1-193.26-38.93-59.12-24.95-112.22-60.67-157.82-106.16-45.6-45.5-81.4-98.47-106.4-157.46-25.89-61.07-39.01-125.94-39.01-192.81s13.13-131.75,39.01-192.81c25.01-58.99,60.81-111.96,106.4-157.46,45.6-45.49,98.7-81.21,157.82-106.16C367.95,16.6,432.97,3.5,500,3.5s132.05,13.1,193.26,38.93c59.12,24.95,112.22,60.67,157.82,106.16,45.6,45.5,81.4,98.47,106.4,157.46,25.89,61.07,39.02,125.94,39.02,192.81s-13.13,131.75-39.02,192.81c-25.01,58.99-60.81,111.96-106.4,157.46-45.6,45.49-98.7,81.21-157.82,106.16-61.21,25.83-126.23,38.93-193.26,38.93Z"/>
      <path class="cls-2" d="M500,7c66.56,0,131.12,13,191.9,38.65,58.71,24.77,111.43,60.24,156.71,105.42,45.28,45.17,80.82,97.78,105.65,156.35,25.7,60.63,38.74,125.05,38.74,191.45s-13.03,130.81-38.74,191.45c-24.83,58.57-60.38,111.17-105.65,156.35-45.28,45.18-98,80.64-156.71,105.42-60.78,25.65-125.34,38.65-191.9,38.65s-131.12-13-191.9-38.65c-58.71-24.77-111.43-60.24-156.71-105.42-45.28-45.17-80.82-97.78-105.65-156.35-25.7-60.63-38.74-125.05-38.74-191.45s13.03-130.81,38.74-191.45c24.83-58.57,60.38-111.17,105.65-156.35,45.28-45.18,98-80.64,156.71-105.42,60.78-25.65,125.34-38.65,191.9-38.65M500,0C223.86,0,0,223.35,0,498.86s223.86,498.86,500,498.86,500-223.35,500-498.86S776.14,0,500,0h0Z"/>
    </g>
    <g class="cls-1">
      <path class="cls-2" d="M311.48,304.59l53.99,1.02c24.98.47,47.95,9.6,67.79,24.32,35.15,26.86,48.34,73.58,30.55,114.3-10.32,23.61-29.31,40.38-53.33,51.55,30.93,11.05,55.56,33.29,65.95,64.27,8.53,25.43,5.17,53.44-8.4,76.41-12.55,21.24-31.59,36.14-53.85,46.24-14.35,4.9-28.63,9.3-44.09,9.37l-66.02.34,94.19,51.26,100.86,55.24,78.39-43.47,116.78-65.68,21.05,17.73-81.98,45.47-35.36,19.91-91.09,50.53c-2.76,1.53-5.67,2.42-8.93,3.35l-107.75-59.15-180.45-98.58v-336.38s159.07-87.62,159.07-87.62l101.1-56,29.48-15.78,97.66,53.27,193.15,106.35v268.41c-8.4.97-16.67.56-25.16-.52l.13-253.75c-8.19-3.9-15.84-10.52-24.45-12.91-18.55-5.15-37.28-6.3-56.48-5.85-52.8,1.22-101.22,26.77-132.86,68.91-41.59,55.4-42.34,125.98-2.86,183.31,31.86,46.27,83.31,74.84,139.96,75.34.34,9.55,2.86,17.41,7.87,25.43-28.09.38-54.75-2.97-80.69-13.07-55.21-21.51-98.95-66.95-117.04-123.66-10.85-34.02-10.57-70.35-1.16-104.39,4.16-15.04,10.76-27.75,17.86-41.35,20.71-34.02,50.35-60.84,86.65-77.69,25.66-11.91,52.43-16.93,81.66-18.69l-142.75-78.46-42.18-22.71-187.26,103.4ZM441.84,434.72c13.66-29.9,3.59-62.95-19.99-83.52-17.46-15.24-39.18-22.78-62.61-22.78h-94.54s-29.61,17.17-29.61,17.17l.03,139.41,130.56-.46c32.67-.12,62.53-19.99,76.15-49.82ZM442.44,631.99c21.64-29.08,18.48-66.79-5.48-92.9-18.12-18.5-42.55-30.17-69.24-30.22l-132.6-.24v146.79s25.93,13.8,25.93,13.8l108.29-.29c28.85-.08,55.82-13.73,73.1-36.94Z"/>
      <path class="cls-3" d="M755.39,691.96c-23.31,4.67-45.58-9.51-48.52-33.13-1.87-14.96,6.66-29.2,19.61-36.32,22.28-12.25,51.14-2.23,58.9,22.19,6.93,21.81-7.54,42.77-29.99,47.26Z"/>
    </g>
  </g>
</svg>